<svg width="24.000000" height="24.000000" viewBox="0 0 24 24" fill="none" xmlns="http://www.w3.org/2000/svg" xmlns:xlink="http://www.w3.org/1999/xlink">
	<desc>
			Created with Pixso.
	</desc>
	<defs/>
	<path id="Vector" d="M13 16.93L13 19L18 19L18 21L6 21L6 19L11 19L11 16.93C9.06 16.69 7.28 15.75 6 14.29C4.71 12.83 4 10.94 4 9L4 3L20 3L20 9C20 10.94 19.28 12.83 18 14.29C16.71 15.75 14.93 16.69 13 16.93ZM6 5L6 9C6 10.59 6.63 12.11 7.75 13.24C8.88 14.36 10.4 15 12 15C13.59 15 15.11 14.36 16.24 13.24C17.36 12.11 18 10.59 18 9L18 5L6 5ZM1 5L3 5L3 9L1 9L1 5ZM21 5L23 5L23 9L21 9L21 5Z" fill="#000000" fill-opacity="1.000000" fill-rule="nonzero"/>
</svg>
